<svg width="auto" height="auto" viewBox="0 0 16 21" fill="none"
  xmlns="http://www.w3.org/2000/svg">
  <path d="M3.5913 1.2745C3.6448 0.516556 4.07282 0.124211 4.89317 0.124211H10.9299C11.7503 0.124211 12.1872 0.516556 12.2407 1.2745H3.5913ZM2.03975 3.74449C2.17351 2.93305 2.55694 2.4872 3.44863 2.4872H12.3745C13.2662 2.4872 13.6496 2.93305 13.7834 3.74449H2.03975ZM2.89578 20.8204C1.03214 20.8204 0.0958609 19.8931 0.0958609 18.0562V7.94437C0.0958609 6.09856 1.03214 5.18012 2.89578 5.18012H12.9363C14.791 5.18012 15.7362 6.10748 15.7362 7.94437V18.0562C15.7362 19.8931 14.7999 20.8204 13.2038 20.8204H2.89578ZM2.91361 19.3848H13.177C13.7923 19.3848 14.3005 18.9033 14.3005 17.9759V8.0157C14.3005 7.09726 13.7923 6.61574 12.9095 6.61574H2.91361C2.02192 6.61574 1.53149 7.09726 1.53149 8.0157V17.9759C1.53149 18.9033 2.02192 19.3848 2.91361 19.3848Z" fill="currentColor"/>
</svg>
