<svg width="auto" height="auto" viewBox="0 0 20 19" fill="none"
  xmlns="http://www.w3.org/2000/svg">
  <path d="M9.91602 18.9939C4.94928 18.9939 0.820739 14.8654 0.820739 9.89864C0.820739 4.92299 4.94036 0.803363 9.9071 0.803363C14.8828 0.803363 19.0113 4.92299 19.0113 9.89864C19.0113 14.8654 14.8917 18.9939 9.91602 18.9939ZM9.91602 17.478C14.1248 17.478 17.4954 14.1074 17.4954 9.89864C17.4954 5.68985 14.1159 2.31924 9.9071 2.31924C5.6983 2.31924 2.34554 5.68985 2.34554 9.89864C2.34554 14.1074 5.70722 17.478 9.91602 17.478ZM5.25246 10.8617C4.89578 10.8617 4.62827 10.5942 4.62827 10.2375C4.62827 9.88972 4.89578 9.62222 5.25246 9.62222H9.29183V4.22747C9.29183 3.87971 9.55934 3.6122 9.9071 3.6122C10.2549 3.6122 10.5313 3.87971 10.5313 4.22747V10.2375C10.5313 10.5942 10.2549 10.8617 9.9071 10.8617H5.25246Z" fill="currentColor"/>
</svg>
