<svg width="auto" height="auto" viewBox="0 0 19 19" fill="none"
  xmlns="http://www.w3.org/2000/svg">
  <path d="M11.6357 1.98419C13.2051 0.414805 15.1757 0.379137 16.6738 1.85935C18.1807 3.35739 18.1183 5.34587 16.5489 6.89742L11.6357 1.98419ZM9.14786 18.8996C8.69309 18.8996 8.33642 18.5429 8.33642 18.0971V12.9966L3.70852 17.2767C3.35185 17.6156 2.83466 17.6691 2.4334 17.25L0.962107 18.4003C0.801602 18.5251 0.596512 18.5162 0.444924 18.3646L0.186333 18.0971C0.0258282 17.9366 0.0347452 17.7315 0.141748 17.5888L1.28312 16.1175C0.86402 15.6984 0.917522 15.1902 1.25637 14.8246L9.54912 5.89872C9.40645 4.87327 9.79879 3.82108 10.744 2.8848L15.6483 7.79803C14.712 8.73431 13.642 9.1534 12.6255 9.01965L9.9593 11.4807V18.0971C9.9593 18.5429 9.60262 18.8996 9.14786 18.8996ZM2.17481 15.5558L2.99517 16.3761L11.2879 8.5203C11.0561 8.37763 10.8064 8.17254 10.5924 7.94962C10.3695 7.70886 10.1911 7.4681 10.0396 7.20951L2.17481 15.5558Z" fill="currentColor"/>
</svg>
