<svg width="auto" height="auto" viewBox="0 0 12 19" fill="none"
  xmlns="http://www.w3.org/2000/svg">
  <path d="M11.3553 5.04878C11.3553 5.34304 11.1681 5.57488 10.8649 5.6373L6.78988 6.529C6.37078 6.61817 6.28161 6.71625 6.28161 7.18885V15.3478C6.28161 17.9427 4.31988 18.9057 3.00909 18.9057C1.52888 18.9057 0.476683 17.9516 0.476683 16.5873C0.476683 15.2408 1.31488 14.3313 3.09826 13.9568L4.51606 13.6625C4.9084 13.5823 5.11349 13.297 5.06891 12.86L5.05107 2.94439C5.05107 2.44504 5.36317 2.13295 5.93385 2.00811L10.5172 1.00941C10.9719 0.920242 11.3553 1.22342 11.3553 1.69602V5.04878Z" fill="currentColor"/>
</svg>
