<svg fill="currentColor" height="auto" width="auto" version="1.1" id="Layer_1"
  xmlns="http://www.w3.org/2000/svg"
  xmlns:xlink="http://www.w3.org/1999/xlink" viewBox="0 0 496 496" xml:space="preserve">
  <g id="SVGRepo_bgCarrier" stroke-width="0"></g>
  <g id="SVGRepo_tracerCarrier" stroke-linecap="round" stroke-linejoin="round"></g>
  <g id="SVGRepo_iconCarrier">
    <g>
      <g>
        <g>
          <path d="M248,133.304v-16c-92.632,0-168,75.368-168,168h16C96,201.488,164.184,133.304,248,133.304z"></path>
          <path d="M248,173.304v-16c-70.576,0-128,57.424-128,128h16C136,223.544,186.24,173.304,248,173.304z"></path>
          <path d="M248,197.304c-48.52,0-88,39.48-88,88h16c0-39.704,32.296-72,72-72V197.304z"></path>
          <path d="M248,245.304c-22.056,0-40,17.944-40,40c0,22.056,17.944,40,40,40c22.056,0,40-17.944,40-40 C288,263.248,270.056,245.304,248,245.304z M248,309.304c-13.232,0-24-10.768-24-24s10.768-24,24-24s24,10.768,24,24 S261.232,309.304,248,309.304z"></path>
          <path d="M439.976,365.304c10.312-24.64,16.024-51.664,16.024-80c0-114.696-93.304-208-208-208s-208,93.304-208,208 c0,16.216,1.984,32.336,5.728,48.096C20.352,334.392,0,355.288,0,380.904c0,12.712,4.952,24.664,13.944,33.656L80,480.616 l35.384-35.384c37.28,30.944,84,48.072,132.616,48.072c80.08,0,149.68-45.512,184.432-112H496v-16H439.976z M80,457.992 l-54.744-54.744C19.288,397.28,16,389.344,16,380.904c0-17.424,14.176-31.6,31.6-31.6c8.44,0,16.376,3.288,22.344,9.256 L80,368.616l10.056-10.056c5.968-5.968,13.904-9.256,22.344-9.256c17.424,0,31.6,14.176,31.6,31.6 c0,8.44-3.288,16.376-9.256,22.344L80,457.992z M422.472,365.304H312c0-13.232-10.768-24-24-24h-40c-13.232,0-24,10.768-24,24v16 c0,13.232,10.768,24,24,24h40c13.232,0,24-10.768,24-24h102.168c-33.248,57.328-95.264,96-166.168,96 c-44.376,0-87.032-15.472-121.256-43.432l19.312-19.312c8.992-8.992,13.944-20.944,13.944-33.656c0-26.248-21.352-47.6-47.6-47.6 c-12.128,0-23.56,4.504-32.4,12.736c-4.968-4.624-10.808-7.928-17.088-10.064C58.392,319.448,56,302.44,56,285.304 c0-105.864,86.136-192,192-192s192,86.136,192,192C440,313.848,433.688,340.928,422.472,365.304z M296,365.304v16 c0,4.416-3.584,8-8,8h-40c-4.416,0-8-3.584-8-8v-16c0-4.416,3.584-8,8-8h40C292.416,357.304,296,360.888,296,365.304z"></path>
          <path d="M24,125.304c13.232,0,24-10.768,24-24V35.336l40-11.424v38.864c-2.512-0.896-5.184-1.472-8-1.472 c-13.232,0-24,10.768-24,24s10.768,24,24,24s24-10.768,24-24V2.696L32,23.272v55.504c-2.512-0.896-5.184-1.472-8-1.472 c-13.232,0-24,10.768-24,24S10.768,125.304,24,125.304z M80,93.304c-4.416,0-8-3.584-8-8s3.584-8,8-8s8,3.584,8,8 S84.416,93.304,80,93.304z M24,93.304c4.416,0,8,3.584,8,8s-3.584,8-8,8s-8-3.584-8-8S19.584,93.304,24,93.304z"></path>
          <path d="M406.312,127.808c4.112,8.616,12.728,13.656,21.696,13.656c3.464,0,6.984-0.752,10.312-2.336 c11.688-5.592,16.728-19.472,11.576-31.256l0.032-0.016l-23.152-64.24l38.528-6.424l-2.624-15.784l-57.472,9.576l22.552,62.544 c-3.464,0.04-6.912,0.744-10.128,2.288C405.696,101.512,400.608,115.864,406.312,127.808z M424.536,110.248 c1.096-0.528,2.264-0.792,3.44-0.792c0.896,0,1.8,0.16,2.672,0.464c2.008,0.712,3.624,2.168,4.544,4.096v0.008 c1.896,3.976,0.208,8.76-3.768,10.664c-3.984,1.904-8.776,0.208-10.672-3.776C418.856,116.928,420.552,112.144,424.536,110.248z"></path>
        </g>
      </g>
    </g>
  </g>
</svg>