<svg width="auto" height="auto" viewBox="0 0 20 19" fill="none"
  xmlns="http://www.w3.org/2000/svg">
  <path d="M10 5.83873C8.57329 5.83873 7.38734 4.65278 7.38734 3.22607C7.38734 1.79044 8.57329 0.631238 10 0.622321C11.4178 0.613404 12.6037 1.79044 12.6037 3.22607C12.6037 4.65278 11.4178 5.83873 10 5.83873ZM16.5629 5.83873C15.1362 5.83873 13.968 4.65278 13.968 3.22607C13.968 1.79044 15.1362 0.631238 16.5629 0.622321C17.9985 0.613404 19.1666 1.79044 19.1666 3.22607C19.1666 4.65278 17.9985 5.83873 16.5629 5.83873ZM3.42822 5.82981C1.99259 5.82981 0.82447 4.65278 0.82447 3.23498C0.82447 1.80827 1.99259 0.622321 3.42822 0.622321C4.85493 0.622321 6.02305 1.80827 6.02305 3.23498C6.02305 4.65278 4.85493 5.82981 3.42822 5.82981ZM16.5629 4.55469C17.3119 4.55469 17.9004 3.96617 17.9004 3.22607C17.9004 2.47704 17.3119 1.88853 16.5629 1.88853C15.8138 1.88853 15.2521 2.47704 15.2521 3.22607C15.2521 3.96617 15.8138 4.55469 16.5629 4.55469ZM3.42822 4.51011C4.15049 4.51011 4.72117 3.93942 4.72117 3.22607C4.72117 2.50379 4.15049 1.92419 3.42822 1.92419C2.69703 1.92419 2.13526 2.50379 2.13526 3.22607C2.13526 3.93942 2.69703 4.51011 3.42822 4.51011ZM10 4.51011C10.7312 4.51011 11.3019 3.93942 11.284 3.22607C11.2751 2.50379 10.7312 1.92419 10 1.92419C9.26881 1.92419 8.70704 2.50379 8.70704 3.22607C8.70704 3.93942 9.26881 4.51011 10 4.51011ZM16.5629 11.9736C15.1362 11.9736 13.968 10.7876 13.968 9.36984C13.968 7.94313 15.1362 6.78393 16.5629 6.77501C17.9985 6.76609 19.1666 7.94313 19.1666 9.36984C19.1666 10.7876 17.9985 11.9736 16.5629 11.9736ZM10 11.9736C8.57329 11.9736 7.38734 10.7876 7.38734 9.36984C7.38734 7.94313 8.57329 6.78393 10 6.77501C11.4178 6.76609 12.6037 7.94313 12.6037 9.36984C12.6037 10.7876 11.4178 11.9736 10 11.9736ZM3.42822 11.9736C1.99259 11.9736 0.82447 10.7876 0.82447 9.36984C0.82447 7.94313 1.99259 6.78393 3.42822 6.77501C4.85493 6.76609 6.02305 7.94313 6.02305 9.36984C6.02305 10.7876 4.85493 11.9736 3.42822 11.9736ZM3.42822 10.6985C4.17724 10.6985 4.74792 10.1099 4.74792 9.36092C4.74792 8.62081 4.17724 8.02338 3.42822 8.02338C2.67919 8.02338 2.09959 8.62081 2.09959 9.36092C2.09959 10.1099 2.67919 10.6985 3.42822 10.6985ZM10 10.6985C10.749 10.6985 11.3286 10.1099 11.3286 9.36092C11.3286 8.62081 10.749 8.02338 10 8.02338C9.25098 8.02338 8.66246 8.62081 8.66246 9.36092C8.66246 10.1099 9.25098 10.6985 10 10.6985ZM16.5629 10.6985C17.3119 10.6985 17.9004 10.1099 17.9004 9.36092C17.9004 8.62081 17.3119 8.02338 16.5629 8.02338C15.8138 8.02338 15.2521 8.62081 15.2521 9.36092C15.2521 10.1099 15.8138 10.6985 16.5629 10.6985ZM3.42822 18.1174C1.99259 18.1174 0.82447 16.9314 0.82447 15.5136C0.82447 14.078 1.99259 12.9099 3.42822 12.9099C4.85493 12.9099 6.02305 14.078 6.02305 15.5136C6.02305 16.9314 4.85493 18.1174 3.42822 18.1174ZM10 18.1174C8.57329 18.1174 7.38734 16.9314 7.38734 15.5136C7.38734 14.078 8.57329 12.9099 10 12.9099C11.4178 12.9099 12.6037 14.078 12.6037 15.5136C12.6037 16.9314 11.4178 18.1174 10 18.1174ZM16.5629 18.1174C15.1362 18.1174 13.968 16.9314 13.968 15.5136C13.968 14.078 15.1362 12.9099 16.5629 12.9099C17.9985 12.9099 19.1666 14.078 19.1666 15.5136C19.1666 16.9314 17.9985 18.1174 16.5629 18.1174ZM3.42822 16.8422C4.17724 16.8422 4.74792 16.2537 4.74792 15.5047C4.74792 14.7646 4.17724 14.1672 3.42822 14.1672C2.67919 14.1672 2.09959 14.7646 2.09959 15.5047C2.09959 16.2537 2.67919 16.8422 3.42822 16.8422ZM10 16.8422C10.749 16.8422 11.3286 16.2537 11.3286 15.5047C11.3286 14.7646 10.749 14.1672 10 14.1672C9.25098 14.1672 8.66246 14.7646 8.66246 15.5047C8.66246 16.2537 9.25098 16.8422 10 16.8422ZM16.5629 16.8422C17.3119 16.8422 17.9004 16.2537 17.9004 15.5047C17.9004 14.7646 17.3119 14.1672 16.5629 14.1672C15.8138 14.1672 15.2521 14.7646 15.2521 15.5047C15.2521 16.2537 15.8138 16.8422 16.5629 16.8422Z" fill="currentColor"/>
</svg>
