<svg width="auto" height="auto" viewBox="0 0 20 19" fill="none"
  xmlns="http://www.w3.org/2000/svg">
  <path d="M0.833984 7.61328C0.833984 6.57422 1.02881 5.6001 1.41846 4.69092C1.81429 3.77555 2.35856 2.97152 3.05127 2.27881C3.74398 1.57992 4.54492 1.03564 5.4541 0.645996C6.36947 0.256348 7.34668 0.0615234 8.38574 0.0615234C9.43099 0.0615234 10.4082 0.256348 11.3174 0.645996C12.2327 1.03564 13.0368 1.57992 13.7295 2.27881C14.4222 2.97152 14.9634 3.77555 15.353 4.69092C15.7489 5.6001 15.9468 6.57422 15.9468 7.61328C15.9468 8.42969 15.82 9.20589 15.5664 9.94189C15.319 10.6779 14.9757 11.349 14.5366 11.9551L18.7671 16.2041C18.897 16.3278 18.9928 16.4731 19.0547 16.6401C19.1227 16.8071 19.1567 16.9834 19.1567 17.1689C19.1567 17.4287 19.098 17.6637 18.9805 17.874C18.863 18.0843 18.7021 18.2482 18.498 18.3657C18.2939 18.4894 18.0589 18.5513 17.793 18.5513C17.6074 18.5513 17.4281 18.5173 17.2549 18.4492C17.0879 18.3874 16.9364 18.2884 16.8003 18.1523L12.542 13.894C11.9482 14.2899 11.2988 14.6022 10.5938 14.8311C9.89486 15.0537 9.15885 15.165 8.38574 15.165C7.34668 15.165 6.36947 14.9702 5.4541 14.5806C4.54492 14.1909 3.74398 13.6497 3.05127 12.957C2.35856 12.2643 1.81429 11.4634 1.41846 10.5542C1.02881 9.63883 0.833984 8.65853 0.833984 7.61328ZM2.81006 7.61328C2.81006 8.38639 2.95231 9.11003 3.23682 9.78418C3.52751 10.4583 3.92952 11.0521 4.44287 11.5654C4.95622 12.0726 5.54997 12.4715 6.22412 12.7622C6.89827 13.0529 7.61882 13.1982 8.38574 13.1982C9.15885 13.1982 9.88249 13.0529 10.5566 12.7622C11.2308 12.4715 11.8215 12.0726 12.3286 11.5654C12.842 11.0521 13.244 10.4583 13.5347 9.78418C13.8254 9.11003 13.9707 8.38639 13.9707 7.61328C13.9707 6.84635 13.8254 6.12581 13.5347 5.45166C13.244 4.77751 12.842 4.18376 12.3286 3.67041C11.8215 3.15706 11.2308 2.75814 10.5566 2.47363C9.88249 2.18294 9.15885 2.0376 8.38574 2.0376C7.61882 2.0376 6.89827 2.18294 6.22412 2.47363C5.54997 2.75814 4.95622 3.15706 4.44287 3.67041C3.92952 4.18376 3.52751 4.77751 3.23682 5.45166C2.95231 6.12581 2.81006 6.84635 2.81006 7.61328Z" fill="currentColor" fill-opacity="0.23" style="mix-blend-mode:lighten"/>
  <path d="M0.833984 7.61328C0.833984 6.57422 1.02881 5.6001 1.41846 4.69092C1.81429 3.77555 2.35856 2.97152 3.05127 2.27881C3.74398 1.57992 4.54492 1.03564 5.4541 0.645996C6.36947 0.256348 7.34668 0.0615234 8.38574 0.0615234C9.43099 0.0615234 10.4082 0.256348 11.3174 0.645996C12.2327 1.03564 13.0368 1.57992 13.7295 2.27881C14.4222 2.97152 14.9634 3.77555 15.353 4.69092C15.7489 5.6001 15.9468 6.57422 15.9468 7.61328C15.9468 8.42969 15.82 9.20589 15.5664 9.94189C15.319 10.6779 14.9757 11.349 14.5366 11.9551L18.7671 16.2041C18.897 16.3278 18.9928 16.4731 19.0547 16.6401C19.1227 16.8071 19.1567 16.9834 19.1567 17.1689C19.1567 17.4287 19.098 17.6637 18.9805 17.874C18.863 18.0843 18.7021 18.2482 18.498 18.3657C18.2939 18.4894 18.0589 18.5513 17.793 18.5513C17.6074 18.5513 17.4281 18.5173 17.2549 18.4492C17.0879 18.3874 16.9364 18.2884 16.8003 18.1523L12.542 13.894C11.9482 14.2899 11.2988 14.6022 10.5938 14.8311C9.89486 15.0537 9.15885 15.165 8.38574 15.165C7.34668 15.165 6.36947 14.9702 5.4541 14.5806C4.54492 14.1909 3.74398 13.6497 3.05127 12.957C2.35856 12.2643 1.81429 11.4634 1.41846 10.5542C1.02881 9.63883 0.833984 8.65853 0.833984 7.61328ZM2.81006 7.61328C2.81006 8.38639 2.95231 9.11003 3.23682 9.78418C3.52751 10.4583 3.92952 11.0521 4.44287 11.5654C4.95622 12.0726 5.54997 12.4715 6.22412 12.7622C6.89827 13.0529 7.61882 13.1982 8.38574 13.1982C9.15885 13.1982 9.88249 13.0529 10.5566 12.7622C11.2308 12.4715 11.8215 12.0726 12.3286 11.5654C12.842 11.0521 13.244 10.4583 13.5347 9.78418C13.8254 9.11003 13.9707 8.38639 13.9707 7.61328C13.9707 6.84635 13.8254 6.12581 13.5347 5.45166C13.244 4.77751 12.842 4.18376 12.3286 3.67041C11.8215 3.15706 11.2308 2.75814 10.5566 2.47363C9.88249 2.18294 9.15885 2.0376 8.38574 2.0376C7.61882 2.0376 6.89827 2.18294 6.22412 2.47363C5.54997 2.75814 4.95622 3.15706 4.44287 3.67041C3.92952 4.18376 3.52751 4.77751 3.23682 5.45166C2.95231 6.12581 2.81006 6.84635 2.81006 7.61328Z" fill="currentColor" style="mix-blend-mode:color-dodge"/>
</svg>
